<?xml version="1.0" encoding="UTF-8"?>
<svg xmlns="http://www.w3.org/2000/svg" xmlns:xlink="http://www.w3.org/1999/xlink" viewBox="0 0 16 16" width="16px" height="16px">
<g id="surface1992923">
<path style=" stroke:none;fill-rule:nonzero;fill:rgb(58.431375%,64.705884%,65.098041%);fill-opacity:1;" d="M 8 15.398438 C 3.917969 15.398438 0.601562 12.082031 0.601562 8 C 0.601562 3.917969 3.917969 0.601562 8 0.601562 C 12.082031 0.601562 15.398438 3.917969 15.398438 8 C 15.398438 12.082031 12.082031 15.398438 8 15.398438 Z M 8 15.398438 "/>
<path style=" stroke:none;fill-rule:nonzero;fill:rgb(92.54902%,94.117647%,94.509804%);fill-opacity:1;" d="M 8 0.800781 C 11.96875 0.800781 15.199219 4.03125 15.199219 8 C 15.199219 11.96875 11.96875 15.199219 8 15.199219 C 4.03125 15.199219 0.800781 11.96875 0.800781 8 C 0.800781 4.03125 4.03125 0.800781 8 0.800781 M 8 0.398438 C 3.804688 0.398438 0.398438 3.804688 0.398438 8 C 0.398438 12.195312 3.804688 15.601562 8 15.601562 C 12.195312 15.601562 15.601562 12.195312 15.601562 8 C 15.601562 3.804688 12.195312 0.398438 8 0.398438 Z M 8 0.398438 "/>
<path style=" stroke:none;fill-rule:nonzero;fill:rgb(100%,100%,100%);fill-opacity:1;" d="M 5.597656 11.253906 L 4.746094 10.402344 L 10.402344 4.746094 L 11.253906 5.597656 Z M 5.597656 11.253906 "/>
<path style=" stroke:none;fill-rule:nonzero;fill:rgb(100%,100%,100%);fill-opacity:1;" d="M 4.746094 5.597656 L 5.597656 4.746094 L 11.253906 10.402344 L 10.402344 11.253906 Z M 4.746094 5.597656 "/>
</g>
</svg>
