<?xml version="1.0" encoding="UTF-8"?>
<svg xmlns="http://www.w3.org/2000/svg" xmlns:xlink="http://www.w3.org/1999/xlink" viewBox="0 0 40 40" width="40px" height="40px">
<g id="surface1878677">
<path style=" stroke:none;fill-rule:nonzero;fill:rgb(50.196081%,48.627451%,48.627451%);fill-opacity:1;" d="M 1.25 18.25 L 38.75 18.25 L 38.75 21.75 L 1.25 21.75 Z M 1.25 18.25 "/>
<path style=" stroke:none;fill-rule:nonzero;fill:rgb(45.490196%,58.823532%,76.862746%);fill-opacity:1;" d="M 38.5 18.5 L 38.5 21.5 L 1.5 21.5 L 1.5 18.5 L 38.5 18.5 M 39 18 L 1 18 L 1 22 L 39 22 Z M 39 18 "/>
<path style=" stroke:none;fill-rule:nonzero;fill:rgb(50.196081%,48.627451%,48.627451%);fill-opacity:1;" d="M 1.25 8.25 L 38.75 8.25 L 38.75 11.75 L 1.25 11.75 Z M 1.25 8.25 "/>
<path style=" stroke:none;fill-rule:nonzero;fill:rgb(45.490196%,58.823532%,76.862746%);fill-opacity:1;" d="M 38.5 8.5 L 38.5 11.5 L 1.5 11.5 L 1.5 8.5 L 38.5 8.5 M 39 8 L 1 8 L 1 12 L 39 12 Z M 39 8 "/>
<path style=" stroke:none;fill-rule:nonzero;fill:rgb(50.196081%,48.627451%,48.627451%);fill-opacity:1;" d="M 1.25 28.25 L 38.75 28.25 L 38.75 31.75 L 1.25 31.75 Z M 1.25 28.25 "/>
<path style=" stroke:none;fill-rule:nonzero;fill:rgb(45.490196%,58.823532%,76.862746%);fill-opacity:1;" d="M 38.5 28.5 L 38.5 31.5 L 1.5 31.5 L 1.5 28.5 L 38.5 28.5 M 39 28 L 1 28 L 1 32 L 39 32 Z M 39 28 "/>
</g>
</svg>
