<?xml version="1.0" encoding="UTF-8"?>
<svg xmlns="http://www.w3.org/2000/svg" xmlns:xlink="http://www.w3.org/1999/xlink" viewBox="0 0 16 16" width="16px" height="16px">
<g id="surface1731523">
<path style=" stroke:none;fill-rule:nonzero;fill:rgb(54.509807%,71.764708%,94.117647%);fill-opacity:1;" d="M 8 0.535156 C 3.875 0.535156 0.535156 3.875 0.535156 8 C 0.535156 12.125 3.875 15.464844 8 15.464844 C 12.125 15.464844 15.464844 12.125 15.464844 8 C 15.464844 3.875 12.125 0.535156 8 0.535156 Z M 8 0.535156 "/>
<path style=" stroke:none;fill-rule:nonzero;fill:rgb(100%,100%,100%);fill-opacity:1;" d="M 15.425781 8.789062 C 15.425781 8.777344 15.425781 8.769531 15.429688 8.757812 C 15.425781 8.765625 15.425781 8.777344 15.425781 8.789062 Z M 0.570312 8.753906 C 0.574219 8.769531 0.574219 8.78125 0.578125 8.796875 C 0.574219 8.78125 0.574219 8.769531 0.570312 8.753906 Z M 9.066406 9.980469 L 10.996094 9.980469 L 11.300781 8.015625 L 9.066406 8.015625 L 9.066406 6.941406 C 9.066406 6.128906 9.332031 5.402344 10.09375 5.402344 L 11.320312 5.402344 L 11.320312 3.691406 C 11.105469 3.664062 10.648438 3.597656 9.789062 3.597656 C 7.992188 3.597656 6.9375 4.546875 6.9375 6.710938 L 6.9375 8.015625 L 5.089844 8.015625 L 5.089844 9.980469 L 6.9375 9.980469 L 6.9375 15.269531 C 7.300781 15.324219 7.671875 15.363281 8.054688 15.363281 C 8.398438 15.363281 8.734375 15.332031 9.066406 15.285156 Z M 9.066406 9.980469 "/>
<path style=" stroke:none;fill-rule:nonzero;fill:rgb(30.588236%,47.843137%,70.980394%);fill-opacity:1;" d="M 8 1.066406 C 11.824219 1.066406 14.933594 4.175781 14.933594 8 C 14.933594 11.824219 11.824219 14.933594 8 14.933594 C 4.175781 14.933594 1.066406 11.824219 1.066406 8 C 1.066406 4.175781 4.175781 1.066406 8 1.066406 M 8 0.535156 C 3.875 0.535156 0.535156 3.875 0.535156 8 C 0.535156 12.125 3.875 15.464844 8 15.464844 C 12.125 15.464844 15.464844 12.125 15.464844 8 C 15.464844 3.875 12.125 0.535156 8 0.535156 Z M 8 0.535156 "/>
</g>
</svg>
