<svg height="398.553" viewBox="0 0 1200.662 398.553" width="1200.662" xmlns="http://www.w3.org/2000/svg"><path d="m142.049 112.434c-8.662 6.387-8.567 11.444-8 16.195 3.6 30.2 99.15 22.709 142.167 69.659 35.6 38.858 37.144 111.551 2.711 154.536-41.331 51.6-126.983 49.1-191.512 41.756-36.794-4.189-67.908-14.192-87.415-20.919 5.333-32.391 12.228-69.617 17.561-102.007 24.071 4.38 127.806 22.9 153.951 16.78 3.538-.828 11.882-2.828 13.82-8.545 1.82-5.372-.562-12.065-7.939-16.31-5.295-3.047-9.794-2.213-23.557-6.647-56.665-18.254-91.787-22.932-120.665-54.742-30.726-33.839-34.808-103.149-6.451-144.853 17.834-26.229 42.444-41.373 60.5-47.35 88.98-29.455 169.958 14.175 198.439 29.081q-14.439 44.1-28.879 88.2c-24.472-10.116-49.826-16.331-72.195-20.292 0-.005-29.012-4.514-42.536 5.458z" fill="#ff3f29"/><path d="m308.869 389.88 129.57-359.592 113.561-20.301 124.683 382.4-104.845-3.844-29.2-72.674h-93.662l-22.244 76.518zm187.521-243.69c-16.567 43.532-18.987 61.216-35.122 103.61 33.18 0 41.89.585 74.342.585-16.272-42.649-22.638-60.731-39.22-104.195z" fill="#ff3f29"/><path d="m915.512 388.996h-227.707l-5.268-368.074 114.731-5.854 1.171 296.195 111.22-8.195z" fill="#ff3f29"/><path d="m1195.317 305.41 5.345 83.586h-242.076l-2.738-363.391 230.103-10.537.585 87.22-121.332 8.195v55.469l116.064-1.615-.585 81.951-111.805 5.211-1.171 59.764z" fill="#ff3f29"/><path d="m268.59 48.957s-118.63-54.43-186.508-9.297c-27.26 18.126-48.935 59.26-47.05 95.79.122 2.353-1.412 40.086 32.4 62.252 59.092 38.741 106.214 31.566 130.443 55.115 11.658 16.821 6.762 32.885 6.762 32.885s.782-12.526-5.719-23.179c-19.314-31.649-64.639-16.143-114.9-42.872-11.893-6.325-44.065-23.435-57.491-58.613-14.445-37.849-1.294-81.162 21.873-108.513 21.4-25.266 48.456-33.507 61.476-37.473 34.2-10.416 62.749-5.2 78.847-2.057 42.609 8.311 79.867 35.962 79.867 35.962z" fill="#c82422"/><path d="m35.512 292.337-7.412 61.951c33.6 10.985 195.227 43.135 244.682-25.171-13.116 19.316-42.69 52.554-116.292 59.61-128.1-5.9-141.645-26.7-141.645-26.7l11.182-70.615z" fill="#c82422"/><path d="m551.415 33.995-97.561 19.903-101.074 313.365h57.366l17.561-58.926 15.61-3.513-27.317 76.098-83.902-5.854 112.487-335.164 101.366-16.055z" fill="#c82422"/><path d="m488.195 137.41-45.658 124.821h95.271l-3.954-7.601-70.866.844 29.11-111.263z" fill="#c82422"/><path d="m579.512 371.556 78.009-3.956-2.682 12.121-76.809-3.821z" fill="#c82422"/><path d="m696.196 28.931 17.6 333.976 188.72-5.071 3.63 16.842-207.219 2.341z" fill="#c82422"/><path d="m975.219 49.215 10.537 322.341 203.762-7.858-.827 17.6-219.325.404-3.909-345.851 208.187-10.063.91 13.728z" fill="#c82422"/><path d="m1053.659 97.028-8.196.187 3.253 87.817h123.048l-4.93-11.277-109.705-5.433z" fill="#c82422"/><path d="m1058.341 240.824h-8.087v90.581l134.917-8.629-.391-12.1-123.317 5.193z" fill="#c82422"/><path d="m142.882 388.572a430.667 430.667 0 0 1 -49.792-2.982 363.938 363.938 0 0 1 -79.934-18.856l-3.9-1.4 13.277-83.853 4.906.738q13.717 2.064 26.785 4.106c63.2 9.783 117.786 18.231 136.446 4.391a16.825 16.825 0 0 0 6.82-11.745c.842-5.942-.1-13.769-14.991-21.61-11.74-6.181-29.059-10.854-47.394-15.8-32.44-8.752-69.205-18.672-92.505-40.872-15.351-14.629-25.162-38.276-26.919-64.879-1.761-26.665 4.826-53.576 18.07-73.832 21.288-32.558 49.849-44.349 58.088-47.187 82.491-28.4 154.591 10.893 181.735 25.685l4.856 2.644-1.236 3.926c-4.447 14.12-7.991 24.007-11.419 33.568-3.4 9.473-6.908 19.269-11.3 33.208l-1.435 4.556-4.616-1.224c-.4-.1-9.794-2.607-18.718-5.829-34.375-12.413-71.929-14.275-91.323-4.526-6.67 3.352-10.915 7.916-12.617 13.563-.706 2.339-.592 3.092-.493 3.755.048.321.088.616.113.9 1.884 22.435 29.8 30.69 62.132 40.249 28.122 8.316 60 17.741 81.618 38.875 25.18 24.611 31.792 60.347 20.213 109.248l-4.866-1.152 4.866 1.152c-8.363 35.317-36.624 58.549-84 69.05-20.861 4.626-42.77 6.133-62.467 6.133zm-122.448-29.872a353.725 353.725 0 0 0 73.832 16.96c38.806 4.595 166.866 13.519 185.356-64.573 23.934-101.08-39.218-119.754-94.935-136.229-34.355-10.158-66.8-19.754-69.262-49-.008-.074-.024-.163-.037-.258a16.82 16.82 0 0 1 .807-8.124c2.526-8.379 8.481-14.978 17.7-19.612 22-11.058 61.87-9.429 99.21 4.055 4.777 1.724 9.8 3.261 13.3 4.281 3.776-11.732 6.909-20.475 9.952-28.961 3.068-8.557 6.23-17.376 10.048-29.277-27.727-15.056-95.259-49.896-171.305-23.716-7.491 2.577-33.431 13.308-52.98 43.205-25.082 38.36-21.565 98.416 7.378 126 21.455 20.446 56.922 30.015 88.215 38.458 18.886 5.095 36.725 9.908 49.447 16.607 15.5 8.16 22.115 18.583 20.233 31.861a26.709 26.709 0 0 1 -10.764 18.374c-22.016 16.329-73.156 8.414-143.933-2.541q-10.684-1.653-21.837-3.358z" fill="#ff9593"/><path d="m419.659 386.085-100.365-4.363 121.851-347.114 105.9-17.162 118.477 367.36-89.576-.707-29.826-73.813-104.143 2.192zm-86.465-13.768 79.147 3.441 22.171-73.124 118.3-2.491 29.909 74.009 69.043.545-111.595-346.006-91.558 14.837z" fill="#ff9593"/><path d="m544.991 259.483h-91.651l40.989-134.024zm-78.136-10h63.666l-35.192-93.1z" fill="#ff9593"/><path d="m909.107 384.751h-217.461l-4.489-360.309 105.4-6.057-.426 297.587 112.618-5.329zm-207.584-10h196.977l-3.154-53.651-113.232 5.358.426-297.481-85.264 4.9z" fill="#ff9593"/><path d="m1195.963 386.35-231.915-1.633-.071-4.892-5.145-348.577 219.292-13.476 5.345 80.632-122.027 7.04.7 64.4 114.818-1.189-.9 73.778-108.86 6.234-2.122 66.122 125.973-6.071zm-222.063-11.564 211.4 1.489-3.617-57.094-126.952 6.119 2.763-86.092 108.686-6.23.661-54.222-114.585 1.186-.917-83.931 121.485-7.011-4.02-60.637-199.831 12.281z" fill="#ff9593"/><g fill="#fff"><circle cx="88.763" cy="69.046" r="19.08"/><circle cx="149.264" cy="47.505" r="19.08"/><circle cx="214.85" cy="56.831" r="19.08"/><circle cx="63.947" cy="130.338" r="19.08"/><circle cx="107.843" cy="184.665" r="19.08"/><circle cx="175.75" cy="209.348" r="19.08"/><circle cx="239.874" cy="245.325" r="19.08"/><circle cx="246.681" cy="310.494" r="19.08"/><circle cx="190.956" cy="343.468" r="19.08"/><circle cx="130.184" cy="347.023" r="19.08"/><circle cx="69.682" cy="336.672" r="19.08"/><circle cx="470.94" cy="85.666" r="19.08"/><circle cx="526.974" cy="75.02" r="19.08"/><circle cx="447.489" cy="144.706" r="19.08"/><circle cx="428.408" cy="203.745" r="19.08"/><circle cx="409.328" cy="271.02" r="19.08"/><circle cx="385.346" cy="340.07" r="19.08"/><circle cx="498.439" cy="280.692" r="19.08"/><circle cx="546.054" cy="141.926" r="19.08"/><circle cx="572.038" cy="216.379" r="19.08"/><circle cx="591.118" cy="280.723" r="19.08"/><circle cx="602.571" cy="340.07" r="19.08"/><circle cx="742.879" cy="70.523" r="19.08"/><circle cx="742.879" cy="138.743" r="19.08"/><circle cx="744.751" cy="206.599" r="19.08"/><circle cx="746.828" cy="272.354" r="19.08"/><circle cx="744.751" cy="342.675" r="19.08"/><circle cx="806.6" cy="347.023" r="19.08"/><circle cx="868.449" cy="342.675" r="19.08"/><circle cx="1009.433" cy="75.02" r="19.08"/><circle cx="1078.255" cy="69.046" r="19.08"/><circle cx="1009.433" cy="147.742" r="19.08"/><circle cx="1009.433" cy="216.379" r="19.08"/><circle cx="1009.433" cy="280.692" r="19.08"/><circle cx="1016.478" cy="345.004" r="19.08"/><circle cx="1097.335" cy="345.004" r="19.08"/><circle cx="1156.226" cy="345.004" r="19.08"/><circle cx="1084.284" cy="209.348" r="19.08"/><circle cx="1137.145" cy="66.586" r="19.08"/></g></svg>