<svg xmlns="http://www.w3.org/2000/svg" version="1.1" viewBox="0 0 3000 1750" width="3000" height="1750">
<defs/><!--ITEM: Illustration component 1--><g transform="translate(965.0 445.0) rotate(0.0 577.5 506.25)  scale(5.244231345519928 5.260150141569473)"><svg width="220.242" height="192.485" viewBox="0.0 0.0 220.242 192.485"><path d="m168.044 167.401c-10.605.766-21.24.554-31.857 1.214.551-18.691 1.564-36.156-.265-54.804-.098-1.784-1.5-3.28-3.321-3.275-5.719.016-9.308.093-15.261.131-1.896.012-3.328 1.441-3.255 3.284 1.697 23.369-.451 46.33 1.379 69.671.073 1.77 1.503 3.2 3.228 3.302 16.051 2.069 32.249-.349 48.385-.099 1.799 0 3.228-1.428 3.283-3.284.145-4.863.376-7.548.687-12.678.119-1.957-1.231-3.515-3.003-3.462z" fill="#ae84d3"/><path d="m114.729 148.549c-.1 12.376-.241 22.617.737 35.089.073 1.77 1.503 3.2 3.228 3.302 3.56.459 6.609.674 10.181.769-4.467-13.831-8.839-25.533-14.146-39.16z" fill="#8c6fb5"/><path d="m206.488 49.983c-12.977-.141-26.019-.447-38.99.151-2.345.104-4.338 1.987-4.455 4.169-.305 5.713-.524 8.47-.482 14.378.016 2.252 1.845 4.026 3.975 3.854 5.052-.408 11.924-.763 16.553-.597 1.574.057 1.246-.638 1.276 3.801.04 5.874-8.085 8.638-17.844 8.642-6.301.002-11.137-1.911-14.878-6.588-3.81-4.762-5.928-11.75-6.036-20.943-.1-8.415 1.726-14.831 5.552-19.304 3.801-4.445 9.118-6.812 16.173-6.962 4.538-.096 8.136.885 10.972 2.964 2.797 2.051 4.673 4.878 5.569 8.408.462 1.823 1.992 2.989 3.795 2.987.251 0 .507-.024.765-.072 7.178-1.328 10.797-2.027 17.827-3.422 1.084-.215 2.04-.879 2.639-1.842s.787-2.146.517-3.282c-2.251-9.48-7.556-17.2-14.676-22.659-7.027-5.387-16.082-7.95-28.28-8.294-9.349-.263-17.264 1.274-23.155 4.822-7.707 4.642-13.45 11.269-17.523 19.364-4.001 7.951-6.173 17.119-6.73 27.414-.512 9.472 1.142 18.265 5.148 26.287 4.118 8.249 9.819 15.256 16.904 20.341 6.967 5.001 15.959 6.643 26.278 5.775 8.061-.678 15.591-2.167 23.068-5.176 7.511-3.024 13.575-6.603 17.769-10.833.816-.822 1.303-1.947 1.357-3.108.684-14.663.501-21.912.897-36.121.066-2.291-1.704-4.148-3.985-4.154z" fill="#4ca2bb"/><path d="m129.907 92.542c-.282-22.891-.088-47.89.662-70.765-1.625 2.157-3.322 5.014-4.619 7.451-4.229 7.951-6.304 17.339-6.893 27.633-.541 9.472.957 18.492 5.191 26.514 1.532 2.903 3.722 6.601 5.659 9.167z" fill="#3d768a"/><path d="m121.119 3.902c-8.15-1.414-11.026.939-18.041.939-2.234 0-4.043 1.907-4.084 4.28-1.029 30.941.885 62.014-.854 92.986.018 2.431 1.89 4.228 4.466 3.617 8.09-1.917 10.458.547 17.863-.464 2.358-.322 4.192-2.287 4.15-4.642-.689-30.526-.149-61.389.928-91.907.044-2.372-1.833-4.359-4.428-4.809z" fill="#ae84d3"/><path d="m105.395 57.849c-1.793-2.604-4.084-4.644-6.873-6.102 1.596-1.701 3.031-3.587 4.277-5.633 2.893-4.75 4.371-9.702 4.179-14.783-.178-4.688-1.566-7.794-4.058-11.59-1.273-1.939-4.188-3.773-4.188-3.773-.137 5.666-2.158 5.517-6.897 5.517-2.881 0-4.836-1.429-5.875-3.372-.708-.102-1.415-.205-2.124-.298-.069-.01-.138-.019-.207-.029.201.033.159.04-.13.022-.297.055-.696-.022-.998-.036-.091-.004-.184-.01-.276-.015-.129 1.086-.306 2.167-.553 3.249-.078.341-.192.65-.3.965.779 1.473 1.615 2.917 1.993 4.638 1.024 4.658-.421 8.912-3.085 12.31-.302.748-.718 1.219-1.08 1.543-.282.252-.601.471-.947.669-1.019.958-2.131 1.822-3.304 2.564-.268.681-.554 1.347-.855 2.002 7.513 5.122 13.611 12.381 15.267 21.928 2.262 13.035-6.078 20.27-15.565 25.398.735.241 1.381.602 1.956 1.04.144-.061.284-.13.434-.181 1.054-.584 2.191-.851 3.409-.803h.215c.036 0 .07.009.106.01.292-1.522.906-2.962 1.832-4.151.302-.544.663-1.052 1.108-1.507.059-.069.112-.146.173-.213.529-.577 1.147-1.079 1.81-1.475 1.525-.909 2.743-1.208 4.491-1.278 1.597.005 3.086.429 4.466 1.273.597.486 1.194.972 1.791 1.458 1.097 1.163 2.642-.169 3.062 1.411-.032 6.479-.383 9.863-.509 13.5 3.201-2.837 6.79-8.997 8.711-13.104 2.175-4.649 3.273-9.445 3.273-14.326 0-6.325-1.519-12.165-4.729-16.828z" fill="#8c6fb5"/><path d="m93.67 47.903c1.596-1.701 3.031-3.587 4.277-5.633 2.893-4.75 4.371-9.702 4.179-14.783-.178-4.688-1.617-8.873-4.108-12.669-2.415-3.679-5.375-6.801-8.789-9.226-3.401-2.415-7.211-4.13-11.303-4.886-3.78-.698-9.114-.852-16.351-.576-14.037.535-21.37.287-35.733.287-2.31 0-4.181 1.937-4.232 4.394-1.214 30.821-1.055 62.181-.014 92.997.064 2.398 1.937 4.334 4.203 4.434 11.994.533 17.488 2.518 30.003.997.01-.001.02-.002.03-.004 12.055-1.506 19.754-1.644 22.9-1.521 5.43.212 10.218-1.849 14.1-4.868 3.878-3.017 6.964-6.974 9.167-11.687 2.175-4.649 3.273-9.445 3.273-14.326 0-6.325-1.518-12.165-4.729-16.828-1.794-2.604-4.084-4.644-6.873-6.102zm-21.069 30.644c-.856.142-3.613.282-12.277.27-5.359-.008-7.959.027-13.069-.023-.046-6.653.099-9.78-.108-16.489 4.063.049 6.303.054 10.809.264 10.935.512 14.646 1.395 15.819 1.834 1.684.629 2.859 1.5 3.645 2.687.805 1.218 1.2 2.744 1.192 4.626-.01 2.193-.505 3.764-1.529 4.813-1.097 1.123-2.52 1.757-4.368 2.003-.038.004-.076.009-.114.015zm3.235-46.146c.066 2.53-.812 3.613-1.488 4.219-1.206 1.08-2.977 1.654-5.471 1.717-1.214.031-5.082-.326-14.694-.988-3.458-.238-5.088-.324-8.133-.258-.098-5.242.005-7.734.403-12.808 2.466-.044 3.766.009 6.459.129 11.222.501 15.562 1.139 16.771 1.351 2.178.383 3.738 1.126 4.666 2.201.947 1.099 1.438 2.563 1.487 4.437z" fill="#ffaac5"/><path d="m96.239 112.568c-.54-1.292-1.718-2.094-2.99-2.028-5.708.299-8.434.687-14.158.957-1.286.061-2.377.95-2.879 2.255-12.778 22.785-16.471 48.162-26.739 72.383-.412 1.003-.305 2.151.283 3.069.587.917 1.576 1.49 2.631 1.554 5.879.354 8.805 1.06 14.677 1.71 1.342.149 2.539-.641 2.999-1.993 1.962-5.773 2.961-9.186 4.942-15.512 9.217.139 13.893.721 23.115.895 2.056 5.04 3.061 7.248 5.14 12.702.474 1.243 1.665 2.097 2.989 2.097h15.094c1.062 0 2.054-.557 2.66-1.493s.753-2.138.395-3.217c-8.014-24.858-17.288-49.779-28.159-73.379zm-14.986 42.913c1.636-5.66 2.516-8.699 4.474-14.293 2.874 5.788 3.944 9.074 5.807 15.346-4.083-.392-6.22-.684-10.281-1.053z" fill="#4ca2bb"/><path d="m61.965 149.199c-4.016 12.136-7.12 25.066-12.492 37.11-.412.954-.305 2.044.283 2.917.587.872 1.576 1.416 2.631 1.477.646.037 1.252.079 1.834.123 4.659-1.763 8.569-4.571 11.64-8.359 3.198-3.945 5.183-8.29 5.501-13.092.345-5.216-1.022-9.647-3.488-13.301-1.531-2.269-3.806-5.116-5.909-6.875z" fill="#3d768a"/><path d="m66.178 140.779c1.787.069 3.316-1.506 3.371-3.384.059-2.022-.282-5.55-.587-7.396-1.293 3.026-3.164 7.704-4.287 10.783.203.008 1.293-.011 1.503-.003z" fill="#3d768a"/><path d="m65.121 154.314c-2.113-3.896-5.137-7.082-8.679-9.917-3.327-2.663-9.183-5.585-16.195-8.158-10.147-3.723-11.993-6.939-12.421-7.863-.305-.659-.41-1.174-.419-1.602-.043-.244-.061-.489-.027-.732.364-2.616 5.173-4.109 10.742-3.334 4.95.689 8.825 2.938 9.371 5.267.682 1.196 1.003 2.798.807 4.826-.16 1.664.584 4.256 2.211 4.452.049.006.099.011.15.013 5.901.324 8.455.96 14.07 1.675 1.775.225 3.44-1.24 3.664-3.141.923-7.809-.896-14.594-5.603-20.021-4.614-5.319-11.918-8.64-22.074-10.053-6.164-.858-11.581-.637-15.975.424-4.602 1.111-8.288 3.435-11.204 7.035-2.906 3.588-4.782 7.804-5.475 12.297-1.071 6.944-.143 12.388 4.184 17.853 3.022 3.817 8.423 8.547 17.037 12.692 6.078 2.925 9.888 4.879 11.397 5.768 2.401 1.414 3.221 2.372 3.503 2.835.409.671.539 1.421.412 2.334-.145 1.036-.617 2.597-2.96 3.862-1.934 1.045-4.852 1.087-8.667.086-3.592-.942-6.184-2.448-7.921-4.617-1.731-2.161-2.44-5.345-2.997-9.447-.228-1.675-1.634-3.202-3.224-3.677-.107-.032-.216-.059-.325-.081-5.622-1.117-8.705-1.834-14.56-2.579-.929-.118-1.835.133-2.518.706-.684.573-1.085 1.423-1.111 2.348-.257 9.166 2.677 18.854 7.658 25.049 4.955 6.164 12.327 9.458 22.209 10.833 6.665.928 12.482.729 17.36-.539 5.123-1.331 9.52-3.928 13.099-7.691 3.543-3.725 5.914-7.962 6.665-12.807.817-5.264-.057-10.173-2.184-14.096z" fill="#4ca2bb"/><path d="m160.877 168.298c0-.131.013-.367.019-.494-1.176.039-2.375.077-3.552.107-.117 6.305-.291 12.728-.573 19.054 1.369-.054 2.738-.099 4.106-.136z" fill="#8c6fb5"/><path d="m217.219 170.095c-12.427 1.949-24.411 1.371-36.92.901-.297-4.803-.127-7.159-.428-12.367 11.127.366 22.474 1.061 33.544-.636 1.736-.154 3.084-1.654 2.969-3.39-.301-4.55-.549-6.805-.659-11.361-.042-1.738-1.508-3.286-3.347-3.479-11.092-1.236-22.656.192-33.81-.393-.066-3.614.08-5.294.55-8.664 12.009.924 24.304-1.043 36.186.608 1.734.116 3.128-1.283 3.125-3.047-.007-4.643-.028-6.966-.04-11.618-.004-1.768-1.437-3.202-3.204-3.202-17.321 0-34.584.171-51.876-.953-1.841-.076-3.273 1.357-3.227 3.173 1.126 23.606 1.13 46.994 0 70.601-.047 1.812 1.386 3.245 3.227 3.175 17.929-1.068 35.302 1.302 53.168-.751 1.788-.129 3.218-1.555 3.258-3.359.105-4.726.273-7.193.502-12.031.089-1.848-1.28-3.339-3.018-3.207z" fill="#ffaac5"/><path d="m46.175 37.092c2.128-.075 4.022.024 4.022.024s.596 14.827.66 15.508.095 9.757.095 9.757l-3.938-.076" fill="#f75c84"/><path d="m180.857 49.817-1.193-.004c.09.507.122 3.124.142 3.685.033.892.035 1.782.035 2.675v13.145c0 .857.028 1.736.044 2.617h4.373l.058-17.173c-.001 0 .418-4.74-3.459-4.945z" fill="#3d768a"/><path d="m178.451 139.369c3.786.126 3.786.126 3.786.126l1.404 19.267-3.935-.234-.896-14.32z" fill="#f75c84"/><g fill="#403838"><path d="m47.145 62.604c-.156 0-.288-.12-.299-.278-.513-7.125-1.09-25.044-1.096-25.224-.005-.166.125-.304.29-.31.196.009.304.125.31.29.006.18.583 18.087 1.095 25.201.012.165-.112.309-.278.321-.007 0-.014 0-.022 0z"/><path d="m98.623 91.173c-.07 0-.141-.024-.198-.075-.124-.109-.136-.299-.027-.423.064-.073 6.396-7.406 6.574-18.77.277-17.719-11.319-23.675-11.436-23.733-.084-.042-.144-.121-.162-.214-.017-.093.01-.188.074-.258 4.24-4.637 13.217-16.998 5.021-31.586-.081-.145-.03-.327.115-.409.145-.081.328-.03.409.115 8.227 14.644-.43 27.067-4.849 32.004 1.964 1.156 11.684 7.72 11.427 24.09-.182 11.593-6.658 19.082-6.724 19.156-.058.069-.141.103-.224.103z"/><path d="m124.249 83.676c-.001 0-.002 0-.003 0-.166-.002-.298-.138-.296-.303l.608-51.958c.002-.165.138-.281.303-.296.166.002.298.138.296.303l-.608 51.958c-.002.164-.136.296-.3.296z"/><path d="m49.375 188.667c-.133 0-.255-.089-.29-.224-.042-.161.054-.324.214-.366 7.408-1.939 14.598-9.138 17.097-17.117 1.633-5.215 2.13-13.125-4.774-21.195-.107-.125-.093-.315.033-.423.124-.107.314-.094.423.033 7.083 8.278 6.569 16.404 4.891 21.764-2.598 8.294-9.801 15.498-17.517 17.518-.026.007-.052.01-.077.01z"/><path d="m160.083 187.152c-.007 0-.015 0-.022 0-.165-.012-.29-.155-.278-.321.007-.092.654-9.284.654-19.021 0-.166.134-.3.3-.3s.3.134.3.3c0 9.76-.649 18.972-.655 19.064-.011.157-.143.278-.299.278z"/><path d="m124.575 187.795c-.018 0-.036-.002-.054-.005-.163-.03-.271-.186-.242-.349.116-.639-.158-1.381-.161-1.388l-9.73-28.533c-.053-.157.031-.327.188-.381.155-.052.327.03.381.188l9.727 28.523c.01.027.333.893.187 1.698-.028.145-.154.247-.296.247z"/><path d="m65.293 139.256c-.159 0-.292-.125-.299-.286-.007-.166.121-.306.286-.313.767-.035 1.376-.317 1.863-.864 1.598-1.793 1.316-5.842 1.21-7.366-.012-.168-.021-.307-.027-.413-.008-.166.12-.306.285-.314.154.003.306.119.314.285.005.102.014.237.025.4.111 1.593.405 5.826-1.361 7.807-.592.664-1.36 1.022-2.283 1.064-.003 0-.008 0-.013 0z"/><path d="m184.247 73.537s-.001 0-.002 0c-.166-.001-.299-.136-.298-.302l.119-19.348c.001-.027.053-1.522-.993-2.608-.747-.774-1.873-1.167-3.348-1.167-.02 0-.045-.006-.062 0-.165 0-.299-.133-.3-.298-.001-.187.176-.301.361-.302 1.648 0 2.921.456 3.785 1.356 1.225 1.275 1.159 2.963 1.155 3.034l-.119 19.336c.001.167-.133.299-.298.299z"/><path d="m179.871 158.929c-.155 0-.286-.119-.298-.276-.013-.157-1.262-15.738-1.304-19.281-.002-.166.13-.301.296-.303h.003c.164 0 .298.132.3.296.042 3.522 1.29 19.083 1.302 19.24.014.165-.11.31-.275.323-.008.001-.016.001-.024.001z"/></g><path d="m.3 153.283c.066-1.34 1.351-3.087 3.783-2.755s14.42 2.562 14.42 2.562 3.086.624 3.496 3.465" fill="#3d768a"/><path d="m22 156.855c-.146 0-.275-.107-.296-.257-.375-2.593-3.142-3.19-3.259-3.214-.115-.021-12.003-2.23-14.401-2.558-1.228-.169-2.019.243-2.47.617-.567.471-.94 1.182-.974 1.855-.009.166-.175.282-.314.285-.166-.008-.293-.149-.285-.314.042-.849.487-1.704 1.19-2.288.543-.451 1.492-.947 2.934-.75 2.412.33 14.315 2.542 14.435 2.564.038.007 3.302.702 3.738 3.717.024.164-.09.316-.254.34-.015.002-.03.003-.044.003z" fill="#403838"/><path d="m91.534 124.081-.083-.255c1.829 0 2.846 1.539 2.259 3.271l-6.034 18.117-2.054-4.196" fill="#3d768a"/><path d="m85.727 141.489c-.031 0-.063-.005-.094-.015-.158-.052-.243-.222-.191-.379l5.725-17.363c.052-.158.223-.245.379-.191.158.052.243.221.191.378l-5.725 17.363c-.042.127-.159.207-.285.207z" fill="#403838"/></svg></g><!--ITEM: Illustration component 2--><g transform="translate(2120.0 290.0) rotate(0.0 111.25 111.25)  scale(3.1165520429173728 3.1165520429173728)"><svg width="71.393" height="71.393" viewBox="0.0 0.0 71.393 71.393"><path d="m41.41 41.41-5.714 29.983-5.712-29.983-29.984-5.713 29.984-5.713 5.713-29.984 5.713 29.984 29.983 5.712z" fill="#ffeddc" fill-rule="evenodd"/></svg></g><!--ITEM: Illustration component 3--><g transform="translate(1917.5 187.5) rotate(0.0 75.0 75.0)  scale(2.1010463210678916 2.1010463210678916)"><svg width="71.393" height="71.393" viewBox="0.0 0.0 71.393 71.393"><path d="m41.41 41.41-5.714 29.983-5.712-29.983-29.984-5.713 29.984-5.713 5.713-29.984 5.713 29.984 29.983 5.712z" fill="#ffeddc" fill-rule="evenodd"/></svg></g><!--ITEM: Illustration component 4--><g transform="translate(730.0 402.5) rotate(0.0 111.25 111.25)  scale(3.1165520429173728 3.1165520429173728)"><svg width="71.393" height="71.393" viewBox="0.0 0.0 71.393 71.393"><path d="m41.41 41.41-5.714 29.983-5.712-29.983-29.984-5.713 29.984-5.713 5.713-29.984 5.713 29.984 29.983 5.712z" fill="#ffeddc" fill-rule="evenodd"/></svg></g><!--ITEM: Illustration component 5--><g transform="translate(2647.5 655.0) rotate(0.0 -235.0 308.75)  scale(-1.549574856004932 1.5436419450638454)"><svg width="303.309" height="400.028" viewBox="0.0 0.0 303.309 400.028"><path d="m237.062 92.114a1 1 0 0 1 -1-1c0-30.822-12.962-89.114-62.02-89.114s-62.021 58.292-62.021 89.114a1 1 0 0 1 -2 0c0-31.514 13.379-91.114 64.021-91.114s64.02 59.6 64.02 91.114a1 1 0 0 1 -1 1z" fill="#403838"/><path d="m197.062 92.114a1 1 0 0 1 -1-1c0-30.822-12.962-89.114-62.02-89.114s-62.021 58.292-62.021 89.114a1 1 0 0 1 -2 0c0-31.514 13.379-91.114 64.021-91.114s64.02 59.6 64.02 91.114a1 1 0 0 1 -1 1z" fill="#403838"/><path d="m296.19 400.028h-210.17v-313.49h216.63c3.23 8.62-6.46 313.49-6.46 313.49z" fill="#ffe3c3"/><path d="m86.02 86.538v313.49l-33.5-34.72-10.02-278.77z" fill="#eacaac"/><path d="m52.52 365.308-28.49 23.95-24.03-302.72h42.5z" fill="#ffe3c3"/><path d="m86.02 400.028-61.99-10.77 28.49-23.95z" fill="#d1ae8b"/></svg></g><!--ITEM: Illustration component 6--><g transform="translate(2765.0 762.5) rotate(0.0 -157.5 266.25)  scale(-0.9375 0.9342105263157895)"><svg width="336.0" height="570.0" viewBox="0.0 0.0 336.0 570.0"><path d="m273.543 426.031a61.988 61.988 0 0 0 -51.358-109.767 56.969 56.969 0 0 0 17.466-56.031 56.993 56.993 0 0 0 -47.075-42.906c-14.339-2.828-40.774-.736-70.086 6.327-23.871 5.752-44.546 13.57-57.6 21.161a56.983 56.983 0 0 0 .173 105.293 63.315 63.315 0 0 0 -50.182 67.161 63.093 63.093 0 0 0 21.319 42.359 56.993 56.993 0 0 0 -36.2 53.059v.326a56.987 56.987 0 0 0 56.987 56.987h202.026a57.629 57.629 0 0 0 6.238-.346c.583.015 1.162.046 1.749.046 38.108 0 69-32.236 69-72 0-37.461-27.419-68.228-62.457-71.669z" fill="#f8a036"/><path d="m127.1 532.516a11.32 11.32 0 0 0 -6.452.82l6.863-15.938a15.9 15.9 0 1 0 -30.511-6.29v8.756a8.189 8.189 0 0 0 -11.629 9.214l9.629 40.922h21.171l17.346-18.529a11.352 11.352 0 0 0 -6.417-18.955z" fill="#ff5e43"/><path d="m49.111 355.733a118.721 118.721 0 0 0 76.889-4.733 130.667 130.667 0 0 1 -62-1 48.958 48.958 0 0 0 -14.889 5.733z" fill="#ef8d22"/><path d="m95.924 355.142q-.6 0-1.207-.006a126.294 126.294 0 0 1 -30.81-4.053 1 1 0 1 1 .506-1.935 124.28 124.28 0 0 0 30.321 3.988 140.073 140.073 0 0 0 30.9-3.229 1 1 0 0 1 .42 1.955 143.726 143.726 0 0 1 -30.13 3.28z" fill="#403838"/><path d="m191 448c3.748 2.336 85 6 108-14-.933-.687-1.932-1.358-3-2a42.3 42.3 0 0 0 -20.792-5.784 336.334 336.334 0 0 1 -84.208 21.784z" fill="#ef8d22"/><path d="m190.13 448.517a1 1 0 0 1 -.082-2 255.848 255.848 0 0 0 84.408-21.948 1 1 0 0 1 .826 1.822 257.823 257.823 0 0 1 -85.068 22.119.8.8 0 0 1 -.084.007z" fill="#403838"/><path d="m42.662 337.009a3.5 3.5 0 0 1 -3.1-5.108 43.78 43.78 0 0 1 56.391-19.928 25.5 25.5 0 0 0 34.991-17.159 21.91 21.91 0 0 1 27.5-15.687 12.3 12.3 0 0 0 15.755-10.721l2.177-25.032a3.5 3.5 0 0 1 6.975.606l-2.178 25.033a19.3 19.3 0 0 1 -24.724 16.824 14.909 14.909 0 0 0 -18.712 10.675 32.5 32.5 0 0 1 -44.6 21.869 36.771 36.771 0 0 0 -47.358 16.736 3.5 3.5 0 0 1 -3.117 1.892z" fill="#ffe3c3"/><ellipse cx="126.121" cy="244.723" fill="#403838" rx="78.886" ry="15.5" transform="matrix(.9721781 -.23424292 .23424292 .9721781 -53.816 36.352)"/><path d="m316.445 551.421a3.5 3.5 0 0 1 -3.029-1.742c-23.658-40.706-46.625-60.931-68.291-60.181-18.442.657-33.176 16.637-45.014 29.476-10.738 11.647-19.219 20.85-28.378 17.288-13.479-5.238-12.355-34.485-11.165-65.45.5-12.893.963-25.07.274-34.465-.918-12.5-3.567-14.258-4.358-14.5-3.1-.934-8.371 5.32-13.468 11.374-7.94 9.426-17.821 21.158-31.357 21.774-.846.038-1.678.057-2.487.057-25.217 0-32.069-18.353-38.141-34.606-4.462-11.944-8.675-23.225-19.568-26.6-10.681-3.315-22.219 3.445-33.385 19.54-.246.355-.44.635-.58.826a3.5 3.5 0 0 1 -5.656-4.124c.116-.16.278-.395.485-.692 16.527-23.821 31.534-25.237 41.21-22.236 14.174 4.396 19.196 17.84 24.052 30.84 6.217 16.641 11.577 31.018 33.752 30 10.475-.476 18.893-10.471 26.32-19.29 7.159-8.5 13.339-15.846 20.855-13.562 10.533 3.195 10.3 23.334 9.048 55.93-.9 23.307-2.123 55.226 6.7 58.657 4.715 1.828 12.475-6.592 20.7-15.509 12.72-13.8 28.551-30.965 49.91-31.727 24.469-.885 49.537 20.547 74.594 63.66a3.5 3.5 0 0 1 -3.024 5.259z" fill="#ffe3c3"/><path d="m274.869 328.4-29.233 10.2a12.12 12.12 0 0 0 -7 16.546 12.118 12.118 0 0 0 19.63 3.4l23.393-23.776c-.805-.9-1.689-1.822-2.658-2.758a53.774 53.774 0 0 0 -4.132-3.612z" fill="#ff5e43"/><path d="m280.564 333.576-25.977 21.515a10.665 10.665 0 0 0 3.873 18.469 10.664 10.664 0 0 0 12.485-5.518l14.355-28.942a32.7 32.7 0 0 0 -3.3-4.1q-.723-.762-1.436-1.424z" fill="#ff5e43"/><path d="m111.983 263.146a1 1 0 0 1 -.993-.892 254.157 254.157 0 0 1 9.71-102.549 270.361 270.361 0 0 1 31.561-67.416 1 1 0 1 1 1.679 1.086 268.363 268.363 0 0 0 -31.328 66.916 252.159 252.159 0 0 0 -9.636 101.746 1 1 0 0 1 -.886 1.1 1.014 1.014 0 0 1 -.107.009z" fill="#403838"/><path d="m111.158 218.542c-.031 0-.063 0-.094 0a1 1 0 0 1 -.9-1.09 163.838 163.838 0 0 0 -9.682-73.029 161.314 161.314 0 0 0 -26.229-45.272 1 1 0 0 1 1.547-1.269 163.341 163.341 0 0 1 26.551 45.828 165.825 165.825 0 0 1 9.8 73.926 1 1 0 0 1 -.993.906z" fill="#403838"/><path d="m86.012 114.2a19.556 19.556 0 0 1 -24.043-2.854l-26.662-26.677a27.808 27.808 0 0 1 -4.788-6.356c-1.024-1.882-.464-1.55-.064-3.379.432-1.974 2.156-3.4 3.981-4.572l33.743-22.362c.637.651 3.006-.18 4.256-.254 3.129-.183 5.429-1.809 7.25 4.282l14.437 38.65a19.556 19.556 0 0 1 -8.11 23.522z" fill="#ff5e43"/><ellipse cx="53.858" cy="62.966" fill="#e54630" rx="28.047" ry="7.379" transform="matrix(.84655569 -.53230017 .53230017 .84655569 -25.252 38.33)"/><path d="m49.817 45.934a11.762 11.762 0 0 1 11.761 11.766 9.047 9.047 0 0 1 -9.047 9.047h-5.431a9.047 9.047 0 0 1 -9.045-9.047 11.762 11.762 0 0 1 11.762-11.766z" fill="#cc125e" transform="matrix(.84310062 -.53775585 .53775585 .84310062 -22.48 35.629)"/><path d="m150.867 94.046a26.935 26.935 0 0 1 -13.767-30.37l14.2-57.613a10.887 10.887 0 0 1 14.532-4.956l50.345 24.739a10.889 10.889 0 0 1 4.955 14.533l-36.762 46.459a26.935 26.935 0 0 1 -33.503 7.208z" fill="#ffadc7"/><ellipse cx="188.007" cy="18.899" fill="#fa8a9f" rx="11.118" ry="37.547" transform="matrix(.42557398 -.90492364 .90492364 .42557398 90.893 180.988)"/></svg></g><!--ITEM: Illustration component 7--><g transform="translate(2240.0 910.0) rotate(0.0 180.0 226.25)  scale(2.038320423970648 2.0415529337454035)"><svg width="176.616" height="221.645" viewBox="0.0 0.0 176.616 221.645"><g>
    <g>
      <path d="M89.205,62.44a.872.872,0,0,1-.531-.179C73.585,50.766,66.047,32.277,67.717,21.74c.693-4.375,2.871-7.321,6.3-8.521,3.56-1.247,6.949-.39,9.8,2.478C92.41,24.34,94.6,49.029,90.029,61.859a.876.876,0,0,1-.575.545A.887.887,0,0,1,89.205,62.44ZM77.143,14.413a7.693,7.693,0,0,0-2.549.457c-3.515,1.231-4.74,4.564-5.149,7.144-1.555,9.815,5.39,26.959,19.318,38.1,3.8-12.435,1.606-35.343-6.188-43.18A7.581,7.581,0,0,0,77.143,14.413Z" style="         fill: #403838;       "/>
      <path d="M89.205,62.44a.875.875,0,0,1-.759-1.311c2.483-4.312,4.2-12.512,6.018-21.195C98.443,20.926,103.4-2.73,119.816.255c5.384.979,8.636,4.3,9.405,9.591,2.073,14.275-14.431,39.76-39.622,52.5A.862.862,0,0,1,89.205,62.44ZM117.1,1.752c-12.853,0-17.125,20.411-20.92,38.541-1.553,7.414-3.032,14.483-5.022,19.253a83.174,83.174,0,0,0,26.994-23.9c6.8-9.449,10.291-19,9.34-25.546-.66-4.545-3.347-7.278-7.986-8.121A13.4,13.4,0,0,0,117.1,1.752Z" style="         fill: #403838;       "/>
    </g>
    <polygon points="31 62.072 105.308 62.072 176.616 62.072 176.616 138.862 176.616 217.652 88.308 217.652 0 217.652 17 138.862 31 62.072" style="         fill: #4ca2bb;       "/>
    <rect x="132.579" y="62.072" width="44.037" height="155.58" style="         fill: #3d768a;       "/>
    <path d="M53.755,221.155a3.5,3.5,0,0,1-3.1-5.124c5.985-11.432,8.1-25.856,5.967-40.615-3.253-22.583-17.25-43.214-35.66-52.561a3.5,3.5,0,0,1,3.169-6.242c20.379,10.347,35.852,33.036,39.42,57.8,2.345,16.2-.032,32.136-6.694,44.862A3.5,3.5,0,0,1,53.755,221.155Z" style="         fill: #ffe3c3;       "/>
    <path d="M113.682,119.553A42.331,42.331,0,0,1,86.705,110.2C73.646,99.359,69.8,81.438,76.14,61.033a3.5,3.5,0,1,1,6.685,2.079c-7.477,24.044,2.023,36.449,8.352,41.7,10.646,8.839,27,10.3,39.766,3.543a3.5,3.5,0,0,1,3.273,6.188A44.035,44.035,0,0,1,113.682,119.553Z" style="         fill: #ffe3c3;       "/>
    <path d="M91.8,221.645h-.049A3.5,3.5,0,0,1,88.3,218.1a48.352,48.352,0,0,1,9.582-28.372,46.919,46.919,0,0,1,10.857-10.309,48.762,48.762,0,0,1,23.553-8.41,3.5,3.5,0,1,1,.569,6.977,41.747,41.747,0,0,0-20.162,7.2,39.88,39.88,0,0,0-9.238,8.766A41.3,41.3,0,0,0,95.3,218.193,3.5,3.5,0,0,1,91.8,221.645Z" style="         fill: #ffe3c3;       "/>
    <path d="M72,218.527a.815.815,0,0,1-.1,0,.875.875,0,0,1-.773-.966L88.437,61.976a.875.875,0,0,1,1.739.193L72.87,217.749A.875.875,0,0,1,72,218.527Z" style="         fill: #403838;       "/>
    <path d="M155.616,218.527a.875.875,0,0,1-.875-.875V62.072a.875.875,0,0,1,1.75,0v155.58A.875.875,0,0,1,155.616,218.527Z" style="         fill: #403838;       "/>
  </g>
</svg></g><!--ITEM: Illustration component 8--><g transform="translate(932.5 682.5) rotate(0.0 -187.5 290.0)  scale(-1.2154015686782913 1.211612259009277)"><svg width="308.54" height="478.701" viewBox="0.0 0.0 308.54 478.701"><path d="m308.54 478.701-40.378-.113-16.113-.04-40.587-.113v-395.35h64.866z" fill="#f8a036"/><path d="m211.462 83.085v395.35l-89.227-.25-16.105-.04-89.219-.25-8.053-394.81z" fill="#feb951"/><path d="m144.719 77.844c-26.51 1.532-52.113-4.49-65.975-15.827a7.928 7.928 0 0 1 -2.9-6.822c1.379-15.856 6.2-28.869 15.645-39.746 9.204 18.311 53.23 62.395 53.23 62.395z" fill="#ff5e43"/><path d="m144.719 77.844c-39.511-1.518-72.08-49.888-50.466-64.784 23.417-16.139 48.692 27.183 50.466 64.784z" fill="#f9511f"/><path d="m142.669 1.122-.632-.168c-19.643-5.188-38.3 11.554-34.817 31.57 3.29 18.9 13.1 38.833 37.5 45.32 7.821-16.661 13.413-29.791 17.216-41.928a27.57 27.57 0 0 0 -19.267-34.794z" fill="#ff5e43"/><path d="m144.72 78.844a1 1 0 0 1 -.258-.034c-26.173-6.959-35.234-28.919-38.227-46.115a28.222 28.222 0 0 1 5.249-21.985 1 1 0 0 1 1.6 1.2 26.243 26.243 0 0 0 -4.878 20.443c2.892 16.621 11.62 37.838 36.77 44.526a1 1 0 0 1 -.256 1.966z" fill="#403838"/><path d="m144.715 77.848s-5.743-34.316 17.035-58.284a26.279 26.279 0 0 1 34.985-2.812 66.2 66.2 0 0 1 17.884 20.4 9.028 9.028 0 0 1 -.379 9.069c-6.653 10.53-27.203 35.764-69.525 31.627z" fill="#ff5e43"/><path d="m161.753 19.565c-22.78 23.97-17.043 58.28-17.043 58.28h.009c45.335-24.519 54.23-62.425 40.583-66.091h-.009c-.728-.125-1.453-.222-2.174-.276a.052.052 0 0 0 -.036 0 .033.033 0 0 0 -.028-.006 26.3 26.3 0 0 0 -21.302 8.093z" fill="#f9511f"/><path d="m144.709 78.845a1 1 0 0 1 -.985-.835c-.047-.28-4.5-28.264 11.028-51.313a1 1 0 1 1 1.658 1.118c-15.088 22.4-10.759 49.593-10.713 49.865a1 1 0 0 1 -.822 1.151 1.043 1.043 0 0 1 -.166.014z" fill="#403838"/><path d="m290.622 149.449-79.16 8.455-209.046-8.455-2.416-75.222h284.502z" fill="#feb951"/><path d="m290.622 149.449-79.16 8.455v-83.677h73.04z" fill="#f8a036"/><path d="m106.13 74.227h16.106v75.222h-16.106z" fill="#ff5e43"/><path d="m256.252 149.449h-16.106l-2.722-75.222h16.106z" fill="#f9511f"/><path d="m211.462 163.48-200.886 3.832-.364-17.863 201.25 8.455z" fill="#f8a036"/><path d="m281.732 149.449.688 8.455-70.958 5.576v-5.576z" fill="#f66b10"/><path d="m211.462 158.9h-.041l-201.243-8.136a1 1 0 1 1 .081-2l201.17 8.136 70.271-7.5a1 1 0 1 1 .212 1.989l-70.344 7.511a.942.942 0 0 1 -.106 0z" fill="#403838"/><path d="m268.162 478.588-16.113-.04-14.303-395.463h16.106z" fill="#f9511f"/><path d="m122.235 83.085v395.1l-16.105-.04v-395.06z" fill="#ff5e43"/></svg></g><!--ITEM: Illustration component 9--><g transform="translate(202.5 857.5) rotate(0.0 251.25 202.5)  scale(1.481959903031161 1.4833697766154996)"><svg width="339.078" height="273.027" viewBox="0.0 0.0 339.078 273.027"><g>
    <path d="M162.875,42.756A188.8,188.8,0,0,1,144,41.787c-27.256-2.761-54.849-11.54-53.845-21.45a.875.875,0,0,1,1.741.176c-.689,6.805,20.154,16.278,52.28,19.533S198.625,38.2,199.315,31.4a.875.875,0,0,1,1.741.176C200.285,39.181,183.133,42.756,162.875,42.756Z" style="         fill: #403838;       "/>
    <path d="M45.7,201.908a43.606,43.606,0,0,1-10.849-1.372C22.48,197.364,12.237,189.108,6.008,177.29a53.9,53.9,0,0,1-4.224-38.615c7.083-27.617,33.441-44.8,58.756-38.311a45.192,45.192,0,0,1,28.841,23.247A53.891,53.891,0,0,1,93.6,162.224h0C87.533,185.9,67.3,201.908,45.7,201.908Zm3.969-91.253c-16.391,0-31.862,12.506-36.584,30.918a42.262,42.262,0,0,0,3.243,30.278,33.665,33.665,0,0,0,21.421,17.386c19.084,4.9,39.074-8.523,44.559-29.91h0a42.262,42.262,0,0,0-3.243-30.278,33.67,33.67,0,0,0-21.421-17.386A32.046,32.046,0,0,0,49.667,110.655Z" style="         fill: #eacaac;       "/>
    <path d="M233.666,201.908c-2.821,9.278-42.383,15.046-94.193,15.046s-92.494-7.178-94.193-15.046h0L91.024,10.425,200.19,21.485l19.426,104.722Z" style="         fill: #ffe3c3;       "/>
    <ellipse cx="145.607" cy="15.955" rx="15.038" ry="54.858" transform="translate(115.055 159.212) rotate(-84.214)" style="         fill: #403838;       "/>
    <path d="M233.666,201.908c-37.786-6.487-44.141-54.144-14.082-75.69l.032-.011Z" style="         fill: #d8b69a;       "/>
    <path d="M311.68,102.846,231.6,190.774c-32.252-8.966-30.548-48.6-12.015-64.781L305,90.555Z" style="         fill: #ffe3c3;       "/>
    <path d="M313.1,65.057c-11.677,9.012-14.075,25.488-7.385,34.954,5.967,8.443,15.615,13.873,32.32,8.234Z" style="         fill: #eacaac;       "/>
    <path d="M233.666,201.908,220.482,265.07a10,10,0,0,1-9.789,7.957H71.088a10,10,0,0,1-9.694-7.543L45.28,201.908h0c2.141,8.008,42.383,15.046,94.193,15.046s91.814-5.953,94.193-15.046Z" style="         fill: #d8b69a;       "/>
    <ellipse cx="325.566" cy="86.651" rx="6.005" ry="24.935" transform="translate(0.292 174.392) rotate(-30)" style="         fill: #ffe3c3;       "/>
    <path d="M231.6,191.649a.862.862,0,0,1-.234-.032c-13.144-3.654-21.986-12.728-24.9-25.55-3.324-14.633,1.833-31.383,12.541-40.733a.875.875,0,1,1,1.151,1.318c-10.244,8.945-15.173,24.994-11.986,39.027,2.763,12.166,11.166,20.779,23.66,24.252a.875.875,0,0,1-.234,1.718Z" style="         fill: #403838;       "/>
  </g>
</svg></g><!--ITEM: Illustration component 10--><g transform="translate(467.5 1077.5) rotate(0.0 176.25 148.75)  scale(1.0075890751618573 1.0025746791761028)"><svg width="349.845" height="296.736" viewBox="0.0 0.0 349.845 296.736"><path d="m233.49 296.736h-138.43c-101.37 0-118.81-87.55-54.23-131.53 21.67-14.79 52.59-24.65 92.67-24.65h129.99c139.43 0 93.21 156.18-30 156.18z" fill="#ffe3c3"/><path d="m137.07 296.736h-42.01c-101.37 0-118.81-87.55-54.23-131.53-29.92 54.494 5.87 110.294 96.24 131.53z" fill="#eacaac"/><path d="m196 176.948c-1.54 0-3.07-.01-4.59-.02-2.44-.02-4.85-.06-7.25-.12-10.91-.26-21.36-.87-31.12-1.79q-4.56-.42-8.9-.94c-.03 0-.05-.01-.08-.01-21.49-2.53-38.97-6.59-49.7-11.54q-6.09-5.49-11.68-11.33c-16.15-16.85-28.98-35.72-37.02-55.67a133.83 133.83 0 0 1 -6.16-19.26 195.783 195.783 0 0 1 61.12 14.97 197.014 197.014 0 0 1 47.9 29.08q3.885 3.18 7.58 6.56a199.4 199.4 0 0 1 30.5 34.95q3.99 5.79 7.5 11.8c.647 1.1 1.277 2.21 1.9 3.32z" fill="#7c7c29"/><path d="m137.071 149.526a1.078 1.078 0 0 1 -.149-.011c-13.389-2-71.293-36.988-98.225-72.642a1 1 0 1 1 1.6-1.206c26.873 35.576 85.148 70.107 96.925 71.87a1 1 0 0 1 -.147 1.989z" fill="#403838"/><path d="m217.407 176.5c-6.9.29-14.02.45-21.3.45h-.107c-1.54 0-3.07-.01-4.59-.02-.26 0-.52 0-.77-.01-2.18-.02-4.33-.06-6.48-.11-10.91-.26-21.36-.87-31.12-1.79q-4.56-.42-8.9-.94c-.03 0-.05-.01-.08-.01a230.172 230.172 0 0 1 -27.36-41.45 209.618 209.618 0 0 1 -16.08-41.38 189.158 189.158 0 0 1 -6.49-57.31 175.951 175.951 0 0 1 28.32 18.56 290.207 290.207 0 0 1 30.54 28.02 353.992 353.992 0 0 1 36.06 44.76c1.61 2.36 3.18 4.75 4.73 7.16 5.26 8.17 10.18 16.59 14.65 25.17 3.237 6.228 6.247 12.538 8.977 18.9z" fill="#5b5c1a"/><path d="m190.637 176.918c-2.18-.02-4.33-.06-6.48-.11-10.91-.26-21.36-.87-31.12-1.79q-4.56-.42-8.9-.94c-.03 0-.05-.01-.08-.01a230.172 230.172 0 0 1 -27.36-41.45 209.618 209.618 0 0 1 -16.08-41.38 189.158 189.158 0 0 1 -6.49-57.31 175.951 175.951 0 0 1 28.32 18.56c5.76 25.03 16.18 56.11 29.59 78.29 11.45 18.94 26.263 34.78 38.6 46.14z" fill="#5b5c1a"/><path d="m225.607 126.108q-.21 7.935-.96 15.79a236.876 236.876 0 0 1 -5.92 34.54c-.34.02-.66.03-1.32.06-6.9.29-14.02.45-21.3.45h-.107c-1.54 0-3.07-.01-4.59-.02-1.9-.02-3.79-.04-5.66-.09-.53 0-1.06-.02-1.59-.03-10.91-.26-21.36-.87-31.12-1.79a260.26 260.26 0 0 1 -4.59-47.41c-.02-2.43.01-4.86.07-7.29a228.6 228.6 0 0 1 4.47-39.81 200.482 200.482 0 0 1 17.67-51.09 186.711 186.711 0 0 1 17.797-28.418 195.693 195.693 0 0 1 31.25 68.33 216.577 216.577 0 0 1 5.9 56.778z" fill="#80862c"/><path d="m348.847 72.218c-.09.37-.17.74-.27 1.1-7 29.12-20.82 55.26-39.04 77.62q-4.26 5.235-8.83 10.18c-8.92 4.83-24.11 8.91-43.25 11.73-4.64.68-9.52 1.29-14.6 1.81-7.63.79-15.71 1.39-24.13 1.78-.28.01-.94.04-1.32.06-6.9.29-14.02.45-21.3.45h-.107c-1.54 0-3.07-.01-4.59-.02.88-1.1 1.78-2.2 2.69-3.3 4.53-5.48 9.33-10.84 14.33-16.03 5.2-5.41 10.63-10.66 16.22-15.7 5.57-5.03 11.31-9.87 17.15-14.49 7.06-5.59 14.28-10.86 21.54-15.77 30.077-20.33 61.007-34.48 85.507-39.42z" fill="#7c7c29"/><path d="m196.017 136.965h-.03a1 1 0 0 1 -.97-1.029c2.046-68.336-5.262-120.436-7.55-134.778a1 1 0 1 1 1.975-.316c2.295 14.385 9.625 66.642 7.574 135.153a1 1 0 0 1 -.999.97z" fill="#403838"/><path d="m225.685 161.13a1 1 0 0 1 -.441-1.9c34.271-16.8 93.419-61.761 122.94-87.762a1 1 0 0 1 1.322 1.5c-29.606 26.077-88.954 71.185-123.382 88.058a.983.983 0 0 1 -.439.104z" fill="#403838"/><path d="m263.337 111.638q-1.47 9.1-3.73 18.01a223.134 223.134 0 0 1 -16.75 45.01c-7.63.79-15.71 1.39-24.13 1.78-.3.02-.89.04-1.32.06-6.28.26-12.75.42-19.35.44-.65.01-1.3.01-1.95.01h-.107c-1.54 0-3.07-.01-4.59-.02-2.44-.02-4.85-.06-7.25-.12q.99-7.485 2.44-14.98a301.3 301.3 0 0 1 7.18-29.4c.71-2.41 1.45-4.82 2.22-7.21a337.327 337.327 0 0 1 23.71-55.89c11.29-21.03 23.97-38.81 36.3-51.06a182.251 182.251 0 0 1 8.94 40.32 198.529 198.529 0 0 1 -1.613 53.05z" fill="#80862c"/><path d="m184.158 177.808a1.169 1.169 0 0 1 -.132-.008 1 1 0 0 1 -.861-1.123c.648-4.9 1.472-9.956 2.45-15.038a303.147 303.147 0 0 1 7.2-29.5c.731-2.482 1.481-4.916 2.227-7.232a340.632 340.632 0 0 1 23.781-56.057 1 1 0 1 1 1.762.947 338.579 338.579 0 0 0 -23.639 55.722c-.742 2.3-1.486 4.719-2.213 7.187a301.111 301.111 0 0 0 -7.157 29.3c-.97 5.046-1.788 10.066-2.431 14.924a1 1 0 0 1 -.987.878z" fill="#403838"/><path d="m263.337 111.638q-1.47 9.1-3.73 18.01a223.134 223.134 0 0 1 -16.75 45.01c-7.63.79-15.71 1.39-24.13 1.78-.3.02-.89.04-1.32.06-6.28.26-12.75.42-19.35.44 26.83-23.17 58.92-70.18 66.89-118.35a198.529 198.529 0 0 1 -1.61 53.05z" fill="#5b5c1a"/><path d="m222.24 176.488a1 1 0 0 1 -.911-1.412c27.96-61.964 38.471-132.976 33.695-156.608a1 1 0 0 1 1.961-.4c4.827 23.9-5.709 95.5-33.833 157.827a1 1 0 0 1 -.912.593z" fill="#403838"/><path d="m128.815 115.4a1 1 0 0 1 -.838-.454c-8.92-13.677-29.494-58.757-34.824-80.785a1 1 0 1 1 1.947-.461c5.289 21.859 25.7 66.592 34.555 80.162a1 1 0 0 1 -.837 1.547z" fill="#403838"/><path d="m166.52 272.516a3.5 3.5 0 0 1 -2.618-1.177c-7.807-8.8-15.713-18.727-23.359-28.327-6.713-8.429-13.628-17.111-20.453-25l-.018.022c-12.679 15.042-27.05 32.09-42.7 44.041a3.5 3.5 0 0 1 -5.343-1.409 201.612 201.612 0 0 0 -25.326-43.416 138.387 138.387 0 0 1 -42.023 24.2 3.5 3.5 0 1 1 -2.364-6.588 131.211 131.211 0 0 0 42.554-25.279 3.5 3.5 0 0 1 5.068.436 208.483 208.483 0 0 1 26.688 43.715c13.728-11.3 26.615-26.593 38.091-40.208l2.647-3.139a3.5 3.5 0 0 1 5.292-.064c7.807 8.8 15.714 18.727 23.36 28.328 6.722 8.44 13.647 17.134 20.48 25.029 15.008-17.514 29.335-35.924 42.621-54.771a3.5 3.5 0 0 1 5.025-.734 146.472 146.472 0 0 1 39.494 47.9 203.911 203.911 0 0 0 38.407-58.537 3.5 3.5 0 0 1 5.71-1.072c14.815 15.053 29.634 26.377 45.3 34.617a3.5 3.5 0 1 1 -3.258 6.2c-15.033-7.906-29.274-18.5-43.408-32.29a207.733 207.733 0 0 1 -41.2 59.562 3.5 3.5 0 0 1 -5.656-.969 139.411 139.411 0 0 0 -36.854-47.595c-13.587 19.066-28.213 37.66-43.514 55.316a3.5 3.5 0 0 1 -2.625 1.208z" fill="#f8a036"/><g fill="#5b5c1a"><path d="m348.577 73.318c-7 29.12-20.82 55.26-39.04 77.62q-4.26 5.235-8.83 10.18c-8.92 4.83-24.11 8.91-43.25 11.73 42.75-22.82 76.48-62.02 91.12-99.53z"/><path d="m144.137 174.078c-.03 0-.05-.01-.08-.01-21.49-2.53-38.97-6.59-49.7-11.54q-6.09-5.49-11.68-11.33c-16.15-16.85-28.98-35.72-37.02-55.67 29.256 42.538 59.53 61.523 98.48 78.55z"/><path d="m185.747 176.838c-.53 0-1.06-.02-1.59-.03-10.91-.26-21.36-.87-31.12-1.79a260.26 260.26 0 0 1 -4.59-47.41c-.02-2.43.01-4.86.07-7.29a228.6 228.6 0 0 1 4.47-39.81 200.482 200.482 0 0 1 17.67-51.09c-18.982 49.727-8.671 117.194 15.09 147.42z"/></g><path d="m153.036 176.018a1 1 0 0 1 -.982-.814 261.559 261.559 0 0 1 -4.607-47.593c-.019-2.246 0-4.641.07-7.317a230.249 230.249 0 0 1 4.49-39.986 1 1 0 0 1 1.96.4 228.2 228.2 0 0 0 -4.451 39.635c-.065 2.653-.088 5.027-.069 7.256a259.616 259.616 0 0 0 4.572 47.232 1 1 0 0 1 -.8 1.169.983.983 0 0 1 -.183.018z" fill="#403838"/></svg></g></svg>