<svg enable-background="new 0 0 143.265 52.86" height="52.86" viewBox="0 0 143.265 52.86" width="143.265" xmlns="http://www.w3.org/2000/svg"><path d="m.5.5h142.265v51.86h-142.265z" fill="#1d2445"/><path d="m142.765 52.861h-142.265c-.276 0-.5-.224-.5-.5v-51.861c0-.276.224-.5.5-.5h142.265c.276 0 .5.224.5.5v51.86c0 .277-.223.501-.5.501zm-141.765-1h141.265v-50.861h-141.265z" fill="#1d2445"/><path d="m56.251 34.185-1.628 6.684h-8.013l8.398-28.879h10.283l8.612 28.879h-8.355l-1.843-6.684zm6.384-5.698-2.827-9.613-2.528 9.613z" fill="#fff"/><path d="m73.924 41.369c-.007-.001-.013-.001-.02 0h-8.355c-.225 0-.422-.15-.482-.367l-1.742-6.316h-6.681l-1.535 6.302c-.055.225-.255.382-.486.382h-8.013c-.157 0-.306-.074-.4-.2-.094-.125-.124-.288-.08-.439l8.398-28.879c.062-.214.258-.36.48-.36h10.283c.221 0 .416.146.479.357l8.575 28.753c.05.077.079.17.079.269 0 .275-.224.498-.5.498zm-7.995-1h7.304l-8.314-27.879h-9.535l-8.108 27.879h6.954l1.535-6.302c.055-.225.255-.382.486-.382h7.455c.225 0 .422.15.482.367zm-3.295-11.382h-5.355c-.155 0-.301-.072-.396-.194-.095-.123-.127-.283-.087-.433l2.528-9.612c.057-.218.252-.37.476-.373.219-.051.423.143.487.359l2.827 9.612c.044.15.015.314-.079.44s-.243.201-.401.201zm-4.707-1h4.039l-2.132-7.249z" fill="#1d2445"/><path d="m77.588 11.99h7.756v22.41h11.096v6.47h-18.852z" fill="#fff"/><path d="m96.44 41.369h-18.852c-.276 0-.5-.224-.5-.5v-28.879c0-.276.224-.5.5-.5h7.756c.276 0 .5.224.5.5v21.91h10.596c.276 0 .5.224.5.5v6.47c0 .276-.224.499-.5.499zm-18.352-1h17.852v-5.469h-10.597c-.276 0-.5-.224-.5-.5v-21.91h-6.756v27.879z" fill="#1d2445"/><path d="m118.343 34.528h-10.376v-5.313h10.368v-6.256h-10.368v-4.627h10.376v-6.342h-18.132v28.879h18.132z" fill="#fff"/><path d="m118.342 41.369h-18.132c-.276 0-.5-.224-.5-.5v-28.879c0-.276.224-.5.5-.5h18.132c.276 0 .5.224.5.5v6.342c0 .276-.224.5-.5.5h-9.876v3.627h9.868c.276 0 .5.224.5.5v6.256c0 .276-.224.5-.5.5h-9.868v4.313h9.876c.276 0 .5.224.5.5v6.342c0 .276-.223.499-.5.499zm-17.631-1h17.132v-5.342h-9.876c-.276 0-.5-.224-.5-.5v-5.313c0-.276.224-.5.5-.5h9.868v-5.256h-9.868c-.276 0-.5-.224-.5-.5v-4.627c0-.276.224-.5.5-.5h9.876v-5.341h-17.132z" fill="#1d2445"/><path d="m36.97 23.388c-3.642-1.371-5.185-1.928-5.185-3.385 0-1.286 1.286-2.143 3.643-2.143 2.718 0 4.773.728 6.04 1.278v-6.781c-1.599-.473-3.539-.796-5.954-.796-7.284 0-11.612 3.942-11.612 9.041 0 4.285 3.257 6.941 8.142 8.698 3.256 1.114 4.541 1.885 4.541 3.299 0 1.457-1.285 2.356-3.941 2.356-2.646 0-5.211-.742-6.978-1.552v6.913c1.765.548 4.108.981 6.506.981 8.441 0 12.297-4.242 12.297-9.212-.001-4.027-2.315-6.769-7.499-8.697z" fill="#fff"/><path d="m32.171 41.798c-2.98 0-5.448-.629-6.654-1.004-.209-.065-.352-.259-.352-.478v-6.913c0-.17.087-.329.23-.421.144-.092.325-.105.479-.033.988.453 3.625 1.507 6.769 1.507 1.57 0 3.441-.322 3.441-1.856 0-1.051-1.021-1.738-4.203-2.826-5.708-2.053-8.48-5.052-8.48-9.171 0-5.707 4.868-9.541 12.112-9.541 2.243 0 4.237.267 6.096.816.212.063.358.258.358.479v6.781c0 .169-.085.326-.226.418-.141.093-.317.108-.474.041-1.916-.833-3.826-1.237-5.841-1.237-1.968 0-3.143.614-3.143 1.643 0 1.038 1.127 1.512 4.691 2.853l.17.064c5.336 1.983 7.822 4.896 7.822 9.165.001 4.696-3.36 9.713-12.795 9.713zm-6.006-1.853c1.882.544 4.049.854 6.006.854 8.698 0 11.797-4.501 11.797-8.713 0-3.847-2.212-6.384-7.172-8.229l-.171-.064c-3.666-1.38-5.339-2.01-5.339-3.789 0-1.277 1.088-2.643 4.143-2.643 1.909 0 3.729.339 5.541 1.034v-5.659c-1.665-.453-3.453-.674-5.455-.674-6.646 0-11.112 3.433-11.112 8.541 0 3.646 2.555 6.338 7.811 8.228 3.298 1.128 4.872 1.98 4.872 3.77 0 .858-.433 2.856-4.441 2.856-2.754 0-5.138-.759-6.478-1.295v5.783z" fill="#1d2445"/></svg>